<?xml version="1.0" encoding="UTF-8" standalone="no"?>
<svg
   xmlns:dc="http://purl.org/dc/elements/1.1/"
   xmlns:cc="http://creativecommons.org/ns#"
   xmlns:rdf="http://www.w3.org/1999/02/22-rdf-syntax-ns#"
   xmlns:svg="http://www.w3.org/2000/svg"
   xmlns="http://www.w3.org/2000/svg"
   xmlns:xlink="http://www.w3.org/1999/xlink"
   xmlns:sodipodi="http://sodipodi.sourceforge.net/DTD/sodipodi-0.dtd"
   xmlns:inkscape="http://www.inkscape.org/namespaces/inkscape"
   sodipodi:docname="background.svg"
   inkscape:version="1.0beta1 (fe3e306, 2019-09-17)"
   id="svg8"
   version="1.1"
   viewBox="0 0 508.00012 285.75101"
   height="1080.0038"
   width="1920.0005">
  <defs
     id="defs2">
    <linearGradient
       y2="240.53696"
       x2="-1790.0758"
       y1="63.925117"
       x1="-1790.0758"
       gradientTransform="matrix(1.4328357,0,0,-1.6119403,1858.6799,593.00444)"
       gradientUnits="userSpaceOnUse"
       id="linearGradient3251"
       xlink:href="#purple"
       inkscape:collect="always" />
    <linearGradient
       id="purple"
       inkscape:collect="always">
      <stop
         id="stop3522"
         offset="0"
         style="stop-color:#3923ac;stop-opacity:1" />
      <stop
         id="stop3524"
         offset="1"
         style="stop-color:#741cd1;stop-opacity:1" />
    </linearGradient>
  </defs>
  <sodipodi:namedview
     inkscape:document-rotation="0"
     inkscape:window-maximized="1"
     inkscape:window-y="32"
     inkscape:window-x="0"
     inkscape:window-height="1011"
     inkscape:window-width="1920"
     units="px"
     showgrid="true"
     inkscape:current-layer="layer1"
     inkscape:document-units="mm"
     inkscape:cy="371.81381"
     inkscape:cx="188.96131"
     inkscape:zoom="0.28578899"
     inkscape:pageshadow="2"
     inkscape:pageopacity="0.0"
     borderopacity="1.0"
     bordercolor="#666666"
     pagecolor="#ffffff"
     id="base">
    <inkscape:grid
       originx="-507.99999"
       spacingy="5.2916667"
       spacingx="5.2916667"
       originy="21.167683"
       id="grid27"
       type="xygrid" />
  </sodipodi:namedview>
  <metadata
     id="metadata5">
    <rdf:RDF>
      <cc:Work
         rdf:about="">
        <dc:format>image/svg+xml</dc:format>
        <dc:type
           rdf:resource="http://purl.org/dc/dcmitype/StillImage" />
        <dc:title></dc:title>
      </cc:Work>
    </rdf:RDF>
  </metadata>
  <g
     transform="translate(-508,-11.24896)"
     id="layer1"
     inkscape:groupmode="layer"
     inkscape:label="Layer 1">
    <g
       transform="translate(1508.3897,-192.74381)"
       id="g2656">
      <path
         inkscape:connector-curvature="0"
         id="path3235"
         d="m -1000.3897,489.74378 h 508.00013 V 203.99377 h -508.00013 z"
         style="opacity:1;fill:url(#linearGradient3251);fill-opacity:1;fill-rule:nonzero;stroke:none;stroke-width:10.5833;stroke-linecap:round;stroke-linejoin:miter;stroke-miterlimit:4;stroke-dasharray:none;stroke-dashoffset:0;stroke-opacity:1" />
      <path
         inkscape:connector-curvature="0"
         style="color:#000000;font-style:normal;font-variant:normal;font-weight:normal;font-stretch:normal;font-size:medium;line-height:normal;font-family:sans-serif;font-variant-ligatures:normal;font-variant-position:normal;font-variant-caps:normal;font-variant-numeric:normal;font-variant-alternates:normal;font-feature-settings:normal;text-indent:0;text-align:start;text-decoration:none;text-decoration-line:none;text-decoration-style:solid;text-decoration-color:#000000;letter-spacing:normal;word-spacing:normal;text-transform:none;writing-mode:lr-tb;direction:ltr;text-orientation:mixed;dominant-baseline:auto;baseline-shift:baseline;text-anchor:start;white-space:normal;shape-padding:0;clip-rule:nonzero;display:inline;overflow:visible;visibility:visible;opacity:0.179;isolation:auto;mix-blend-mode:normal;color-interpolation:sRGB;color-interpolation-filters:linearRGB;solid-color:#000000;solid-opacity:1;vector-effect:none;fill:#1c1669;fill-opacity:1;fill-rule:nonzero;stroke:none;stroke-width:1.85208;stroke-linecap:round;stroke-linejoin:round;stroke-miterlimit:4;stroke-dasharray:none;stroke-dashoffset:0;stroke-opacity:1;color-rendering:auto;image-rendering:auto;shape-rendering:auto;text-rendering:auto;enable-background:accumulate"
         d="m -914.21215,203.99327 -7.3054,1.9585 c -32.8882,8.8191 -60.4453,29.0426 -78.87215,55.7039 v 28.3934 c 15.13125,-33.9756 44.92605,-60.5424 82.48345,-70.6133 l 15.8174,-4.2387 15.075,20.6409 56.5146,-5.7655 3.391,33.8325 h 0.168 c 65.8696,4.4489 117.53451,59.5528 117.53451,125.5723 v 0.08 0.08 c -0.10141,40.1112 -19.21052,76.8021 -49.73901,100.10651 h 21.3393 c 26.31601,-25.69951 42.2698,-61.44311 42.31849,-100.02301 a 13.964403,13.964403 0 0 0 0,-0.08 v -0.08 -0.08 c 0,-69.346 -51.41499,-127.8766 -118.86449,-138.1805 l -0.1673,-1.3473 -2.1192,-21.2565 a 13.964403,13.964403 0 0 0 -15.3129,-12.5212 l -48.5664,4.9789 -10.3328,-14.1967 a 13.964403,13.964403 0 0 0 -2.941,-2.9647 z m 2.1243,39.0042 -13.3771,4.9141 1.6596,22.1365 c -4.8015,2.6346 -9.2905,5.7174 -13.4204,9.189 l -20.6922,-8.5785 -9.0744,10.8081 12.4614,17.9473 c -2.8652,4.7233 -5.2381,9.7401 -7.0795,14.991 l -21.859,2.6507 -2.3334,13.7936 19.7067,9.3311 c 0,2.7631 0.1442,5.5533 0.3907,8.3625 0.2793,2.8079 0.7103,5.5697 1.2673,8.2753 l -17.4794,12.9118 5.0326,13.0806 21.9639,-1.5649 c 2.8507,4.7991 6.177,9.2756 9.9264,13.3623 l -8.6472,19.9739 11.0369,8.87 18.5883,-12.3494 c 4.7401,2.6202 9.7624,4.7863 14.9955,6.4571 l 2.777,22.0311 14.0947,2.2808 10.0554,-20.3425 c 2.6178,-0.08 5.2589,-0.1992 7.9127,-0.4944 l 38.4551,-3.6938 -5.4807,-54.6338 -38.4591,3.6897 1.7099,17.0024 c -24.1981,2.3227 -45.7375,-14.9878 -48.1126,-38.6664 -2.3753,-23.6772 15.3156,-44.7517 39.5105,-47.076 l 38.4562,-3.6941 -3.7749,-37.6416 -38.4573,3.6935 c -2.6609,0.2156 -5.2782,0.5588 -7.8585,1.0233 z m 83.5364,45.6878 -10.0566,20.3427 c -2.6169,0.08 -5.2557,0.1998 -7.9127,0.495 l -38.4602,3.6936 3.7748,37.6354 38.4619,-3.6941 a 44.020674,43.081033 0 0 1 48.1142,38.667 44.020674,43.081033 0 0 1 -39.5149,47.077 l -38.4602,3.7076 3.7765,37.6361 38.4619,-3.69419 c 2.6611,-0.22342 5.28,-0.57462 7.8524,-1.0278 l 13.9199,18.0381 13.3652,-4.91522 -1.6455,-22.13539 c 4.7982,-2.6345 9.2852,-5.7177 13.4119,-9.1901 l 20.6978,8.5784 9.0689,-10.808 -12.4558,-17.9473 c 2.8643,-4.7235 5.2463,-9.7453 7.0901,-14.9961 l 21.8439,-2.6445 2.34069,-13.7942 -19.71299,-9.3316 c 0.1444,-2.7615 -0.1442,-5.5534 -0.3906,-8.362 -0.2794,-2.807 -0.71,-5.57 -1.2662,-8.2757 l 17.4799,-12.9109 -5.0308,-13.0861 -21.9578,1.5701 c -2.8515,-4.7993 -6.1834,-9.2764 -9.932,-13.363 l 8.6461,-19.974 -11.0353,-8.8699 -18.5921,12.3505 c -4.7417,-2.6218 -9.7617,-4.7863 -14.9949,-6.4571 l -2.785,-22.0311 z m -171.83825,103.5663 v 28.2564 c 21.42955,30.9157 55.01355,52.96039 93.95605,58.91939 l 0.1449,1.3485 0.8953,8.96691 h 14.0834 l -2.3057,-22.9752 h -0.168 c -47.7861,-3.2293 -88.0819,-33.1333 -106.60595,-74.516 z"
         id="path3237" />
    </g>
  </g>
</svg>
